# xmcd CD database file generated by OrangeCD 6.5
#
# Track frame offsets:
#	150
#	13417
#	24666
#	37463
#	48335
#	61173
#	74070
#	84170
#	96073
#	109234
#	120573
#	132024
#	144234
#	158342
#	172407
#	184747
#	197102
#	210862
#	224349
#	236854
#	248949
#	261626
#
# Disc length: 3642 seconds
#
# Revision: 2
# Processed by: cddbd v1.5.2PL0 Copyright (c) Steve Scherf et al.
# Submitted via: OrangeCD 6.5
#
DISCID=4a0e3816
DTITLE=Various Artist - The United Records Story
DYEAR=2004
DGENRE=Blues
TTITLE0=Roosevelt Sykes - Fine And Brown
TTITLE1=Leo Parker - Cool Leo
TTITLE2=Junior Wells - Cut That Out
TTITLE3=Chris Woods - Somebody Done Stole My Blues
TTITLE4=Robert Nighthawk - Seventy Four
TTITLE5=Jimmy Coe - Organ Grinder
TTITLE6=The Four Blazes - Raggedy Ride
TTITLE7=J. T. Brown - Walking Home
TTITLE8=Memphis Slim - Memphis Slim U.S.A.
TTITLE9=Ray McKinstry - Dinah
TTITLE10=Morris Pejoe - Let's Get High
TTITLE11=Tab Smith - Crazy Walk
TTITLE12=Grant Jones - In The Dark
TTITLE13=Paul Bascomb - Nona
TTITLE14=Dennis Binder - The Long Man
TTITLE15=The Pastels - Goodbye
TTITLE16=Alfred Harris - My Life Blues
TTITLE17=Tiny Grimes - Tiny's Boogie
TTITLE18=Della Reese - Yes Indeed
TTITLE19=Johnny Wicks - Jockey Jack Boogie
TTITLE20=Jimmy Forrest - Sophisticated Lady
TTITLE21=Robert Anderson - Come In The Room
EXTD=
EXTT0=
EXTT1=
EXTT2=
EXTT3=
EXTT4=
EXTT5=
EXTT6=
EXTT7=
EXTT8=
EXTT9=
EXTT10=
EXTT11=
EXTT12=
EXTT13=
EXTT14=
EXTT15=
EXTT16=
EXTT17=
EXTT18=
EXTT19=
EXTT20=
EXTT21=
PLAYORDER=
